<svg id="undraw_task_re_wi3v" xmlns="http://www.w3.org/2000/svg" width="146.079" height="120.016" viewBox="0 0 146.079 120.016">
  <path id="Path_216" data-name="Path 216" d="M940.606,712.284V698.766S945.875,708.35,940.606,712.284Z" transform="translate(-803.915 -592.269)" fill="#f1f1f1"/>
  <path id="Path_217" data-name="Path 217" d="M899.017,731.314l-9.959-9.142S899.681,724.772,899.017,731.314Z" transform="translate(-762 -611.301)" fill="#f1f1f1"/>
  <circle id="Ellipse_44" data-name="Ellipse 44" cx="2.059" cy="2.059" r="2.059" transform="translate(42.498 0)" fill="#f1f1f1"/>
  <circle id="Ellipse_44-2" data-name="Ellipse 44" cx="2.059" cy="2.059" r="2.059" transform="translate(37.265 5.233)" fill="#f1f1f1"/>
  <circle id="Ellipse_44-3" data-name="Ellipse 44" cx="2.059" cy="2.059" r="2.059" transform="translate(35.957 98.111)" fill="#f1f1f1"/>
  <path id="Path_218" data-name="Path 218" d="M796.569,435.1" transform="translate(-686.795 -377.877)"/>
  <path id="Path_219" data-name="Path 219" d="M569.77,591.566H567.53l-.128-8.5,2.368-.134Z" transform="translate(-461.367 -473.991)" fill="#9f616a"/>
  <path id="Path_220" data-name="Path 220" d="M760.864,757.026h-7.225v-.093a2.816,2.816,0,0,1,2.813-2.813h4.412Z" transform="translate(-651.888 -637.278)" fill="#2f2e41"/>
  <path id="Path_221" data-name="Path 221" d="M624.439,580.892l-2.053.895-3.516-7.744,2.117-1.069Z" transform="translate(-503.216 -465.897)" fill="#9f616a"/>
  <path id="Path_222" data-name="Path 222" d="M828.663,744.966l-.037-.086a2.813,2.813,0,0,1,1.454-3.7l4.045-1.763,1.161,2.664Z" transform="translate(-712.67 -625.322)" fill="#2f2e41"/>
  <circle id="Ellipse_15" data-name="Ellipse 15" cx="4.852" cy="4.852" r="4.852" transform="translate(107.53 40.745)" fill="#9f616a"/>
  <path id="Path_223" data-name="Path 223" d="M594.824,463.22,588.552,447.9l3.046-14.335-5.779-.314-3.181,16.038,8.019,15.9Z" transform="translate(-473.756 -352.285)" fill="#2f2e41"/>
  <path id="Path_224" data-name="Path 224" d="M571.4,419.586l-2.957,18.322-.889,17.561-5.1-.045-.189-33.6Z" transform="translate(-457.188 -341.174)" fill="#2f2e41"/>
  <path id="Path_225" data-name="Path 225" d="M568.652,422.178l-.291,2.654-14.468.647.98-3.99Z" transform="translate(-450.382 -342.722)" fill="#cbcbcb"/>
  <path id="Path_226" data-name="Path 226" d="M766.828,477.1a1.682,1.682,0,0,1,.287-2.375,1.735,1.735,0,0,1,.234-.153l5.675-21.325,3.364,1.478-6.666,20.607a1.685,1.685,0,0,1-.5,2.034A1.715,1.715,0,0,1,766.828,477.1Z" transform="translate(-662.315 -392.632)" fill="#9f616a"/>
  <path id="Path_227" data-name="Path 227" d="M767.643,410.5l.669-1.382s3.3-2.849,6.771-1.141l.536,1.6,2.835,4.578-.64,21.145s-11.827-.9-14.759.172l1.289-16.755Z" transform="translate(-659.544 -355.375)" fill="#3f3d56"/>
  <path id="Path_228" data-name="Path 228" d="M769.172,450.88l-4.994-1.4L768.8,435.05l.418-8.059a2.913,2.913,0,0,1,1.088-2.1,3.581,3.581,0,0,1,2.766-.762,3.147,3.147,0,0,1,2.854,2.967v.014l-1.6,11.3-.514,1.839Z" transform="translate(-660.457 -368.924)" fill="#cbcbcb"/>
  <path id="Path_229" data-name="Path 229" d="M791.1,349.827l1.1.279,1.674-1.78s3.077-7.137-3.724-8.229-5.315,1.665-6.224,3.394l2.779.722,2.5,2.556s1.632-1.2,2.112-.111S791.1,349.827,791.1,349.827Z" transform="translate(-676.521 -300.426)" fill="#2f2e41"/>
  <path id="Path_230" data-name="Path 230" d="M285.052,284.539h-75.89v-75.89h75.89Z" transform="translate(-209.162 -193.745)" fill="#fff"/>
  <path id="Path_231" data-name="Path 231" d="M285.052,284.539h-75.89v-75.89h75.89Zm-74.769-1.121h73.648V209.77H210.283Z" transform="translate(-209.162 -193.745)" fill="#e5e5e5"/>
  <rect id="Rectangle_41" data-name="Rectangle 41" width="48.671" height="1.718" transform="translate(15.648 47.529)" fill="#01b6a4"/>
  <rect id="Rectangle_42" data-name="Rectangle 42" width="48.671" height="1.718" transform="translate(15.648 51.996)" fill="#01b6a4"/>
  <rect id="Rectangle_43" data-name="Rectangle 43" width="48.671" height="1.718" transform="translate(15.648 56.463)" fill="#01b6a4"/>
  <circle id="Ellipse_16" data-name="Ellipse 16" cx="1.121" cy="1.121" r="1.121" transform="translate(11.572 47.518)" fill="#01b6a4"/>
  <rect id="Rectangle_44" data-name="Rectangle 44" width="48.671" height="1.718" transform="translate(15.648 28.28)" fill="#e5e5e5"/>
  <rect id="Rectangle_45" data-name="Rectangle 45" width="48.671" height="1.718" transform="translate(15.648 32.747)" fill="#e5e5e5"/>
  <rect id="Rectangle_46" data-name="Rectangle 46" width="48.671" height="1.718" transform="translate(15.648 37.214)" fill="#e5e5e5"/>
  <circle id="Ellipse_17" data-name="Ellipse 17" cx="1.121" cy="1.121" r="1.121" transform="translate(11.572 28.083)" fill="#e5e5e5"/>
  <rect id="Rectangle_47" data-name="Rectangle 47" width="48.671" height="1.718" transform="translate(15.648 66.964)" fill="#e5e5e5"/>
  <rect id="Rectangle_48" data-name="Rectangle 48" width="48.671" height="1.718" transform="translate(15.648 71.431)" fill="#e5e5e5"/>
  <rect id="Rectangle_49" data-name="Rectangle 49" width="48.671" height="1.718" transform="translate(15.648 75.898)" fill="#e5e5e5"/>
  <circle id="Ellipse_18" data-name="Ellipse 18" cx="1.121" cy="1.121" r="1.121" transform="translate(11.572 66.767)" fill="#e5e5e5"/>
  <path id="Path_232" data-name="Path 232" d="M745.9,769.223H690.025a.187.187,0,1,1,0-.374H745.9a.187.187,0,1,1,0,.374Z" transform="translate(-600.01 -649.255)" fill="#cbcbcb"/>
</svg>
